<svg width="295" height="113" viewBox="0 0 295 113" fill="none" xmlns="http://www.w3.org/2000/svg">
<g clip-path="url(#clip0_18599_2323)">
<path d="M50.6503 0.847168H48.671L0 105.03H11.1622L16.8469 91.4752C18.0973 88.4941 20.2061 85.9479 22.9078 84.157C25.6095 82.3661 28.7832 81.4105 32.0294 81.4109H67.2779C70.5238 81.4109 73.6971 82.3666 76.3984 84.1574C79.0997 85.9483 81.2082 88.4945 82.4585 91.4752L88.1452 105.03H99.3074L50.6503 0.847168ZM49.6537 72.7034C46.5536 72.703 43.5234 71.7879 40.9459 70.0738C38.3685 68.3597 36.3598 65.9236 35.1736 63.0734C33.9875 60.2233 33.6772 57.0872 34.2821 54.0616C34.887 51.036 36.3798 48.2569 38.5719 46.0755C40.7639 43.8942 43.5567 42.4087 46.5972 41.8067C49.6376 41.2048 52.7891 41.5135 55.6533 42.6939C58.5174 43.8742 60.9655 45.8732 62.688 48.438C64.4105 51.0028 65.3301 54.0183 65.3305 57.1032C65.3308 59.1519 64.9255 61.1806 64.1377 63.0734C63.35 64.9663 62.1953 66.6861 60.7395 68.1347C59.2837 69.5834 57.5554 70.7325 55.6533 71.5164C53.7511 72.3003 51.7125 72.7037 49.6537 72.7034Z" fill="#008550"/>
<path d="M211.052 25.9344C210.671 25.961 210.289 25.9111 209.927 25.7877C209.566 25.6642 209.233 25.4698 208.949 25.216C208.665 24.9621 208.435 24.654 208.273 24.31C208.11 23.9659 208.019 23.5928 208.005 23.213C208.004 22.4838 208.289 21.7831 208.8 21.2603C209.311 20.7374 210.007 20.4339 210.739 20.4143L216.482 19.5593V20.4143C216.581 21.1525 216.51 21.9035 216.274 22.6102C216.037 23.317 215.643 23.961 215.119 24.4932C214.596 25.0255 213.957 25.432 213.252 25.6821C212.547 25.9321 211.794 26.0191 211.05 25.9363M204.251 23.4094C204.28 24.1931 204.467 24.9629 204.802 25.6729C205.137 26.3828 205.612 27.0182 206.199 27.541C206.787 28.0638 207.474 28.4634 208.22 28.7156C208.966 28.9678 209.756 29.0675 210.542 29.0088C211.736 29.061 212.924 28.8014 213.986 28.2558C215.048 27.7102 215.948 26.8976 216.597 25.8987C216.585 26.7453 216.652 27.5912 216.797 28.4256H220.385C220.216 27.4103 220.138 26.3822 220.149 25.3532V15.9831C220.149 12.3275 217.957 9.14 212.336 9.14C210.522 9.00528 208.723 9.55422 207.297 10.6779C205.871 11.8015 204.922 13.4178 204.638 15.2056L208.154 16.0208C208.179 15.493 208.31 14.9757 208.539 14.499C208.768 14.0223 209.09 13.5959 209.487 13.2449C209.884 12.8938 210.347 12.6252 210.85 12.4547C211.352 12.2842 211.884 12.2154 212.414 12.2522C215.266 12.2522 216.476 13.7695 216.476 15.5963C216.476 16.2568 216.163 16.8399 215.031 16.9966L209.952 17.7345C206.709 18.2006 204.247 20.0671 204.247 23.4113M202.475 9.5268C202.076 9.45272 201.67 9.41364 201.263 9.40985C200.073 9.36824 198.897 9.68723 197.892 10.3247C196.888 10.9622 196.101 11.8882 195.637 12.9801V9.72123H192.049V28.4237H195.722V19.0536C195.722 14.9319 197.793 13.3014 200.881 13.3014C201.414 13.3031 201.947 13.3423 202.475 13.4185V9.5268ZM183.848 2.64605C183.852 3.16504 184.011 3.67116 184.304 4.1005C184.597 4.52984 185.011 4.86313 185.495 5.05811C185.978 5.25309 186.509 5.30111 187.019 5.196C187.53 5.0909 187.998 4.83744 188.364 4.46769C188.73 4.09793 188.978 3.62846 189.076 3.11868C189.174 2.6089 189.117 2.08168 188.914 1.60369C188.711 1.12571 188.37 0.718338 187.934 0.433255C187.498 0.148171 186.987 -0.00188044 186.466 0.00202756C186.119 0.00198749 185.775 0.0707283 185.455 0.204082C185.135 0.337436 184.844 0.532717 184.601 0.778769C184.357 1.02482 184.165 1.31666 184.036 1.63723C183.907 1.95779 183.843 2.30072 183.848 2.64605ZM188.301 9.72317H184.668V28.4256H188.301V9.72317ZM177.677 19.0456C177.677 22.8936 175.529 25.6547 172.128 25.6547C168.768 25.6547 166.547 22.8956 166.547 19.0456C166.547 15.3127 168.774 12.512 172.128 12.512C175.567 12.512 177.677 15.3127 177.677 19.0456ZM166.581 35.8022V25.8847C167.253 26.8658 168.165 27.6595 169.232 28.1904C170.299 28.7212 171.485 28.9715 172.676 28.9175C178.186 28.9175 181.429 24.6014 181.429 19.0416C181.429 13.5969 178.421 9.28092 172.794 9.28092C171.539 9.21866 170.291 9.49683 169.183 10.0859C168.075 10.6749 167.149 11.5526 166.503 12.6251V9.70936H162.953V35.7983L166.581 35.8022ZM145.453 23.5542C145.766 25.6924 147.954 28.9989 153.111 28.9989C157.761 28.9989 159.987 25.849 159.987 23.205C159.987 20.444 158.193 18.3831 154.791 17.6512L151.741 16.9907C150.296 16.6793 149.593 15.8642 149.593 14.7355C149.676 13.9934 150.052 13.3146 150.638 12.8479C151.224 12.3813 151.972 12.1649 152.718 12.2462C153.645 12.1709 154.566 12.451 155.292 13.0292C156.018 13.6073 156.495 14.4399 156.625 15.3564L159.868 14.1524C159.484 12.5988 158.549 11.2355 157.236 10.3137C155.922 9.3919 154.317 8.97369 152.718 9.13613C151.05 9.06047 149.419 9.63571 148.171 10.7394C146.923 11.843 146.157 13.3878 146.037 15.0449C146.044 16.3372 146.524 17.5827 147.386 18.5486C148.249 19.5144 149.436 20.1348 150.725 20.2933L153.93 20.9934C155.493 21.3425 156.352 22.2371 156.352 23.4054C156.352 24.7264 155.22 25.8947 153.149 25.8947C152.102 26.0008 151.056 25.6935 150.236 25.0389C149.416 24.3843 148.887 23.435 148.763 22.3958L145.453 23.5542ZM130.752 4.81405L135.558 17.1792H126.025L130.752 4.81405ZM139.935 28.4176H144.077L133.059 0.847049H128.644L117.625 28.4176H121.727L124.657 20.7197H136.928L139.935 28.4176Z" fill="#163029"/>
<path d="M127.196 55.449H123.054V66.7252H119.188V39.1684H129.618C130.728 39.105 131.84 39.272 132.882 39.6587C133.924 40.0454 134.873 40.6434 135.671 41.4148C136.468 42.1863 137.095 43.1142 137.513 44.1397C137.931 45.1653 138.13 46.2661 138.097 47.3722C138.138 49.269 137.476 51.1143 136.237 52.5558C134.997 53.9974 133.268 54.9341 131.378 55.1872L137.982 66.7332H133.527L127.196 55.449ZM128.915 52.0275C129.577 52.0924 130.246 52.0185 130.878 51.8107C131.51 51.6028 132.092 51.2654 132.585 50.8205C133.078 50.3755 133.473 49.8329 133.742 49.2272C134.012 48.6215 134.151 47.9662 134.151 47.3037C134.151 46.6412 134.012 45.9861 133.742 45.3804C133.473 44.7747 133.078 44.2319 132.585 43.787C132.092 43.342 131.51 43.0048 130.878 42.7969C130.246 42.589 129.577 42.5152 128.915 42.5801H123.054V52.0275H128.915Z" fill="#163029"/>
<path d="M156.942 61.4012C156.379 63.1694 155.248 64.7049 153.724 65.7722C152.199 66.8396 150.365 67.3798 148.502 67.3101C145.986 67.1712 143.615 66.0937 141.862 64.2926C140.109 62.4914 139.103 60.0989 139.044 57.5921C138.985 55.0853 139.877 52.6484 141.543 50.7674C143.21 48.8864 145.527 47.6995 148.034 47.4434C153.814 47.4434 157.059 51.4103 157.059 57.2398C157.061 57.6299 157.035 58.0197 156.982 58.4061H142.83C142.813 59.1528 142.948 59.8951 143.226 60.5888C143.504 61.2824 143.92 61.9131 144.449 62.4431C144.978 62.9731 145.609 63.3915 146.304 63.6732C146.999 63.955 147.744 64.0943 148.494 64.0829C149.676 64.1582 150.847 63.8239 151.808 63.1368C152.77 62.4497 153.463 61.4522 153.768 60.3142L156.942 61.4012ZM153.23 55.4507C153.243 54.789 153.115 54.132 152.855 53.5227C152.596 52.9133 152.21 52.3653 151.723 51.9141C151.237 51.463 150.66 51.1189 150.031 50.9043C149.402 50.6897 148.734 50.6093 148.072 50.6685C146.763 50.651 145.498 51.1397 144.543 52.0317C143.589 52.9237 143.02 54.1494 142.955 55.4507H153.23Z" fill="#163029"/>
<path d="M165.812 48.0265H169.876V51.3311H165.812V61.0503C165.812 62.76 166.516 63.6169 168.429 63.6169C168.915 63.6123 169.399 63.5598 169.874 63.4601V66.5703C169.064 66.8167 168.22 66.9346 167.373 66.9194C166.661 66.975 165.946 66.8743 165.277 66.6246C164.609 66.3749 164.004 65.9822 163.504 65.4743C163.005 64.9663 162.624 64.3556 162.388 63.6851C162.152 63.0145 162.067 62.3006 162.139 61.5937V51.3291H158.551V48.0265H159.565C159.955 48.0674 160.349 48.0211 160.718 47.891C161.087 47.761 161.423 47.5504 161.7 47.2747C161.977 46.999 162.189 46.6653 162.319 46.2977C162.45 45.9302 162.497 45.5383 162.456 45.1505V42.1157H165.816L165.812 48.0265Z" fill="#163029"/>
<path d="M175.07 38.3053C175.592 38.3013 176.103 38.4514 176.539 38.7365C176.975 39.0216 177.316 39.4289 177.519 39.9069C177.722 40.3849 177.778 40.9121 177.68 41.4219C177.583 41.9317 177.335 42.401 176.969 42.7708C176.603 43.1405 176.135 43.394 175.624 43.4991C175.113 43.6042 174.583 43.5563 174.1 43.3613C173.616 43.1664 173.202 42.8331 172.909 42.4037C172.616 41.9744 172.457 41.4683 172.453 40.9493C172.45 40.6046 172.516 40.2627 172.646 39.9432C172.776 39.6237 172.968 39.3329 173.211 39.0873C173.454 38.8417 173.743 38.6462 174.062 38.512C174.381 38.3778 174.724 38.3076 175.07 38.3053ZM173.276 48.0244H176.91V66.7248H173.276V48.0244Z" fill="#163029"/>
<path d="M191.231 51.7098C190.703 51.6342 190.17 51.595 189.637 51.5928C186.549 51.5928 184.48 53.2252 184.48 57.345V66.715H180.801V48.0146H184.389V51.2795C184.853 50.1875 185.64 49.2615 186.644 48.6241C187.649 47.9866 188.825 47.6676 190.016 47.7092C190.421 47.7126 190.826 47.7517 191.225 47.8261L191.231 51.7098Z" fill="#163029"/>
<path d="M210.142 61.3915C209.579 63.1596 208.448 64.6952 206.924 65.7626C205.399 66.8299 203.565 67.3701 201.703 67.3003C199.187 67.1614 196.816 66.084 195.063 64.2828C193.31 62.4816 192.303 60.0891 192.244 57.5823C192.185 55.0755 193.078 52.6386 194.744 50.7576C196.41 48.8766 198.727 47.6897 201.234 47.4336C207.015 47.4336 210.26 51.4006 210.26 57.2321C210.262 57.6222 210.236 58.012 210.182 58.3984H196.03C196.013 59.1451 196.148 59.8874 196.426 60.5811C196.704 61.2747 197.12 61.9054 197.649 62.4354C198.178 62.9654 198.809 63.3838 199.504 63.6655C200.199 63.9473 200.944 64.0866 201.695 64.0752C202.876 64.1505 204.047 63.8162 205.009 63.1291C205.97 62.442 206.663 61.4445 206.969 60.3065L210.142 61.3915ZM206.431 55.441C206.443 54.7792 206.315 54.1224 206.056 53.513C205.796 52.9037 205.41 52.3556 204.924 51.9045C204.437 51.4533 203.86 51.1092 203.231 50.8945C202.602 50.6799 201.935 50.5997 201.272 50.6588C199.963 50.6413 198.698 51.13 197.744 52.022C196.789 52.914 196.22 54.1396 196.155 55.441H206.431Z" fill="#163029"/>
<path d="M213.461 66.7168V48.0164H216.977V50.5057C217.577 49.5471 218.421 48.7624 219.422 48.2302C220.423 47.6979 221.547 47.4368 222.682 47.4729C223.869 47.4268 225.043 47.7404 226.048 48.3722C227.052 49.004 227.841 49.9243 228.309 51.0115C228.912 49.889 229.823 48.9602 230.937 48.3337C232.05 47.7071 233.32 47.4087 234.597 47.4729C235.51 47.4616 236.414 47.6432 237.251 48.0058C238.088 48.3685 238.838 48.9038 239.451 49.5764C240.064 50.249 240.527 51.0437 240.808 51.9076C241.089 52.7715 241.183 53.685 241.083 54.5877V66.7188H237.45V54.9764C237.526 54.4235 237.479 53.8606 237.31 53.3283C237.141 52.796 236.856 52.3076 236.474 51.8984C236.093 51.4892 235.625 51.1695 235.104 50.9622C234.583 50.755 234.023 50.6654 233.463 50.7C232.861 50.7047 232.267 50.8327 231.717 51.0759C231.167 51.3191 230.673 51.6724 230.266 52.1138C229.859 52.5551 229.548 53.075 229.352 53.6412C229.156 54.2074 229.079 54.8078 229.126 55.4049V66.7108H225.452V54.9685C225.529 54.4156 225.481 53.8527 225.312 53.3204C225.144 52.7881 224.859 52.2997 224.477 51.8905C224.096 51.4813 223.628 51.1616 223.107 50.9543C222.586 50.7471 222.026 50.6575 221.466 50.6921C220.855 50.6858 220.25 50.8073 219.69 51.0485C219.129 51.2898 218.626 51.6455 218.213 52.0926C217.799 52.5397 217.485 53.0681 217.29 53.6439C217.095 54.2196 217.024 54.8297 217.081 55.4346V66.7108L213.461 66.7168Z" fill="#163029"/>
<path d="M262.066 61.3915C261.503 63.1596 260.372 64.6952 258.848 65.7626C257.323 66.8299 255.489 67.3701 253.626 67.3003C251.11 67.1614 248.739 66.084 246.986 64.2828C245.233 62.4816 244.227 60.0891 244.168 57.5823C244.109 55.0755 245.001 52.6386 246.668 50.7576C248.334 48.8766 250.651 47.6897 253.158 47.4336C258.938 47.4336 262.181 51.4006 262.181 57.2321C262.183 57.6222 262.157 58.012 262.104 58.3984H247.952C247.935 59.1451 248.07 59.8874 248.348 60.5811C248.626 61.2747 249.042 61.9054 249.571 62.4354C250.1 62.9654 250.731 63.3838 251.426 63.6655C252.121 63.9473 252.866 64.0866 253.616 64.0752C254.798 64.1505 255.969 63.8162 256.93 63.1291C257.892 62.442 258.585 61.4445 258.89 60.3065L262.066 61.3915ZM258.354 55.441C258.367 54.7792 258.239 54.1224 257.979 53.513C257.72 52.9037 257.334 52.3556 256.847 51.9045C256.361 51.4533 255.784 51.1092 255.155 50.8945C254.526 50.6799 253.858 50.5997 253.196 50.6588C251.887 50.6413 250.622 51.13 249.667 52.022C248.713 52.914 248.144 54.1396 248.079 55.441H258.354Z" fill="#163029"/>
<path d="M269.137 66.7169H265.464V48.0165H269.052V50.6982C269.631 49.6893 270.474 48.8561 271.493 48.2876C272.511 47.7192 273.665 47.4368 274.832 47.471C279.325 47.471 281.551 50.6982 281.551 54.8576V66.715H277.888V55.4785C277.888 52.8722 276.793 50.7736 273.503 50.7736C270.612 50.7736 269.127 53.0685 269.127 55.9049L269.137 66.7169Z" fill="#163029"/>
<path d="M290.935 48.0164H294.99V51.3208H290.925V61.04C290.925 62.7498 291.627 63.6067 293.543 63.6067C294.028 63.6022 294.512 63.5496 294.988 63.4499V66.5621C294.177 66.8084 293.333 66.9262 292.486 66.9112C291.774 66.9668 291.059 66.8661 290.39 66.6163C289.721 66.3665 289.116 65.9736 288.617 65.4655C288.118 64.9573 287.737 64.3462 287.501 63.6754C287.265 63.0046 287.18 62.2905 287.252 61.5835V51.3189H283.664V48.0143H284.679C285.068 48.0552 285.462 48.0089 285.831 47.8789C286.201 47.7488 286.536 47.5382 286.813 47.2625C287.09 46.9868 287.302 46.6529 287.433 46.2854C287.563 45.9179 287.61 45.5259 287.569 45.1382V42.1055H290.929L290.935 48.0164Z" fill="#163029"/>
<path d="M119.186 105.03V77.4595H123.023V101.448H136.11V105.018L119.186 105.03Z" fill="#163029"/>
<path d="M140.988 76.6085C141.51 76.6046 142.021 76.7547 142.457 77.0398C142.893 77.3249 143.234 77.7322 143.437 78.2101C143.64 78.6881 143.696 79.2153 143.598 79.7251C143.501 80.2349 143.253 80.7044 142.887 81.0741C142.521 81.4439 142.053 81.6973 141.542 81.8024C141.031 81.9075 140.501 81.8595 140.018 81.6646C139.534 81.4696 139.12 81.1364 138.827 80.7071C138.534 80.2777 138.375 79.7715 138.371 79.2525C138.368 78.9078 138.434 78.566 138.564 78.2465C138.694 77.927 138.886 77.6361 139.129 77.3905C139.372 77.145 139.661 76.9496 139.98 76.8154C140.299 76.6812 140.642 76.6108 140.988 76.6085ZM139.194 86.3277H142.828V105.028H139.194V86.3277Z" fill="#163029"/>
<path d="M156.576 105.03H152.864L145.242 86.3301H149.384L154.736 100.754L160.128 86.3301H164.072L156.576 105.03Z" fill="#163029"/>
<path d="M168.453 76.6085C168.975 76.6046 169.486 76.7547 169.922 77.0398C170.357 77.3249 170.698 77.7322 170.902 78.2101C171.105 78.6881 171.161 79.2153 171.063 79.7251C170.965 80.2349 170.718 80.7044 170.352 81.0741C169.986 81.4439 169.518 81.6973 169.007 81.8024C168.496 81.9075 167.966 81.8595 167.482 81.6646C166.999 81.4696 166.585 81.1364 166.292 80.7071C165.998 80.2777 165.84 79.7715 165.836 79.2525C165.833 78.9079 165.899 78.5662 166.029 78.2468C166.159 77.9274 166.351 77.6367 166.594 77.3911C166.837 77.1456 167.126 76.9501 167.445 76.8159C167.764 76.6816 168.107 76.6111 168.453 76.6085ZM166.659 86.3277H170.297V105.028H166.663L166.659 86.3277Z" fill="#163029"/>
<path d="M177.869 105.03H174.195V86.3301H177.783V89.0117C178.362 88.0027 179.206 87.1692 180.224 86.6008C181.242 86.0323 182.397 85.7501 183.564 85.7845C188.054 85.7845 190.283 89.0117 190.283 93.1711V105.029H186.621V93.7919C186.621 91.1856 185.527 89.0872 182.236 89.0872C179.346 89.0872 177.861 91.382 177.861 94.2184L177.869 105.03Z" fill="#163029"/>
<path d="M196.779 105.223C196.876 106.495 197.462 107.681 198.415 108.535C199.367 109.389 200.614 109.846 201.895 109.81C205.842 109.81 207.64 107.789 207.64 103.745V101.061C207.058 102.049 206.215 102.859 205.201 103.401C204.188 103.943 203.044 104.196 201.895 104.134C199.563 104.005 197.369 102.993 195.763 101.304C194.158 99.616 193.263 97.3798 193.263 95.0553C193.263 92.7308 194.158 90.4946 195.763 88.8062C197.369 87.1177 199.563 86.1052 201.895 85.9768C203.043 85.8565 204.202 86.0721 205.228 86.597C206.255 87.1219 207.105 87.9335 207.676 88.9322V86.3279H211.309V103.628C211.309 108.372 208.965 112.998 201.893 112.998C199.834 113.131 197.799 112.49 196.193 111.201C194.587 109.912 193.526 108.069 193.221 106.038L196.779 105.223ZM207.795 95.075C207.878 94.3214 207.8 93.5591 207.566 92.8374C207.333 92.1158 206.95 91.4512 206.441 90.8869C205.932 90.3226 205.31 89.8712 204.614 89.5622C203.919 89.2532 203.165 89.0936 202.404 89.0936C201.642 89.0936 200.888 89.2532 200.193 89.5622C199.497 89.8712 198.875 90.3226 198.366 90.8869C197.857 91.4512 197.474 92.1158 197.241 92.8374C197.007 93.5591 196.929 94.3214 197.012 95.075C197.012 98.7287 199.121 101.061 202.441 101.061C203.201 101.058 203.952 100.896 204.644 100.585C205.337 100.274 205.956 99.8218 206.461 99.2571C206.966 98.6923 207.346 98.028 207.575 97.3075C207.805 96.5869 207.88 95.8263 207.795 95.075Z" fill="#163029"/>
</g>
<defs>
<clipPath id="clip0_18599_2323">
<rect width="295" height="113" fill="white"/>
</clipPath>
</defs>
</svg>
