<svg width="80" height="80" viewBox="0 0 80 80" fill="none" xmlns="http://www.w3.org/2000/svg">
<path d="M78.4188 71.3425C77.9033 70.3993 77.4266 69.4016 77.1903 68.3051C76.9604 67.2726 76.7877 66.1495 76.3423 65.2132C75.7007 63.8436 74.6787 62.8041 73.7476 61.6713C73.0125 60.7587 72.2814 59.6621 71.5139 58.8205C70.3957 57.4495 69.1386 56.3404 67.9348 55.0794C67.3062 54.49 66.6777 54.0121 66.1608 53.3377C65.457 52.4474 64.7934 51.3675 64.0479 50.4828C63.6064 49.9672 63.0713 49.591 62.5805 49.2023C61.3415 48.2562 60.3403 46.8991 60.1818 45.2521C60.0715 34.4816 60.2546 19.1645 60.113 8.31451C55.3457 7.60948 14.9303 8.34795 0.80101 8.08879C0.178956 8.03166 0.612704 8.47475 1.27112 9.25781C1.71786 9.77056 2.17758 10.2708 2.62172 10.8002C3.16586 11.4412 3.64765 12.1657 4.12425 12.854C4.84371 13.9938 5.68394 14.6055 6.69299 13.8363C7.9384 12.9766 8.56825 11.274 9.83314 10.4909C12.0149 9.37345 13.0512 12.2312 14.1641 13.7444C15.2654 15.1363 16.4251 16.421 17.4147 17.9425C18.7029 20.0298 19.7535 22.4556 20.8236 24.71C22.6859 29.3164 22.7976 29.1492 26.6637 31.7924C28.174 32.875 28.5688 34.7393 28.4935 36.5563C28.496 36.7694 28.4909 38.2673 28.8753 37.8562C29.0714 37.6305 29.4843 36.9269 29.5129 36.9826C29.5609 38.617 28.4909 40.0731 28.0545 41.5612C27.5805 42.6647 27.7376 42.8765 28.4857 43.7431C29.0623 44.3186 29.0298 44.3813 28.9181 45.1727C28.9012 45.4988 28.761 45.7858 28.6623 46.0547C28.5986 46.3417 28.5597 46.5939 28.6103 46.906C28.7766 47.6264 29.3402 48.4429 30.031 48.638C30.4804 48.7076 30.7362 48.1545 30.9908 47.7783C31.2804 47.2613 31.857 46.5814 32.1855 46.3055C32.4362 46.0436 32.6673 46.3153 32.8076 46.5675C33.0374 46.9367 33.3465 47.5261 33.4803 47.8145C33.5179 47.9148 33.6205 48.0681 33.4803 48.1182C33.1504 48.2283 32.8413 48.5056 32.7569 48.8846C32.6686 49.2998 32.7089 49.6551 32.3388 49.8613C31.7596 50.14 31.492 50.7113 31.7894 51.3466C31.9258 51.6448 32.1725 51.7981 32.3245 52.074C32.5439 52.4279 32.6634 52.9058 32.7388 53.3266C33.018 54.3897 33.2543 52.2635 33.4426 52.1422C33.5023 52.1255 33.5829 52.2342 33.6361 52.2635C33.7348 52.3484 33.8595 52.3638 33.9855 52.3582C34.1374 52.361 34.227 52.2648 34.3426 52.2718C34.3867 52.2802 34.401 52.3345 34.401 52.4376C34.3958 52.8389 34.2725 53.6679 34.4387 54.0205C34.553 54.1626 34.7542 54.1556 34.9062 54.2323C35.0828 54.3256 35.3036 54.4663 35.5244 54.3911C36.3789 54.2671 36.9697 53.4506 37.5489 52.8542C37.7866 52.5853 37.9113 52.6619 37.9749 52.9211C38.3061 54.7074 37.0723 55.0488 36.2919 56.3056C36.0438 56.7626 35.6101 57.7588 36.2165 58.0222C36.5204 58.1364 36.6814 57.9734 36.5789 58.422C36.5412 58.8247 36.5529 59.2413 36.4347 59.6231C36.1685 60.6932 37.0386 61.8762 38.0204 62.1701C38.7229 62.4168 39.4385 62.0907 40.1216 62.4056C40.8475 62.7846 41.2865 62.7721 42.0605 62.4753C42.1358 62.4697 42.2683 62.3847 42.3163 62.4349C42.0644 62.8194 41.7774 63.2765 41.6306 63.7892C41.5085 64.1027 41.654 64.256 41.9345 64.2797C42.2994 64.3048 42.6137 64.3479 43.0487 64.256C43.6591 64.1362 44.1864 63.5287 44.663 63.2347C44.7461 63.2277 44.698 63.4604 44.7149 63.5732C44.7201 63.909 44.8552 64.2434 45.0344 64.5138C45.2409 64.8008 45.5512 64.9805 45.6084 65.3651C45.7292 66.8657 46.3434 68.0779 47.8213 66.966C47.9395 66.8894 47.9187 66.966 47.9174 67.2071C47.9628 69.7625 49.5459 69.1996 50.2121 70.1345C50.3718 70.5051 50.403 70.958 50.6264 71.2966C50.9368 71.9654 51.7146 71.9459 52.364 71.9765C57.0833 72.0309 72.3411 71.971 77.3266 71.9919C77.6422 72.0002 78.0552 71.9779 78.2824 71.9027C78.5292 71.8191 78.5513 71.6547 78.4227 71.3509L78.4188 71.3412V71.3425Z" fill="white"/>
</svg>
