<svg width="52" height="54" viewBox="0 0 52 54" fill="none" xmlns="http://www.w3.org/2000/svg">
<path d="M39.6562 53.9062C33 53.9062 27.6562 48.5625 27.6562 41.9062C27.6562 35.25 33 29.9062 39.6562 29.9062C46.3125 29.9062 51.6562 35.25 51.6562 41.9062C51.6562 48.5625 46.3125 53.9062 39.6562 53.9062ZM51.75 23.3438L50.625 24.4688L47.625 27.4688C46.6875 26.9062 45.6562 26.5312 44.625 26.1562L47.5312 23.3438L28.4062 4.3125L13.3125 19.4062L26.25 32.3438C25.5938 33.1875 25.125 34.0312 24.6562 34.9688L11.25 21.5625L12.6562 34.9688L12.75 35.7188L12.1875 36.1875L4.3125 43.9688L7.40625 47.0625L15.375 39.2812L15.8438 38.8125L16.5938 38.9062L23.3438 39.6562C23.25 40.4062 23.1562 41.1562 23.1562 41.9062C23.1562 42.0938 23.1562 42.375 23.1562 42.6562L16.9688 42L8.4375 50.25L7.40625 51.2812L1.125 45L0 43.9688L1.125 42.8438L9.5625 34.5938L8.15625 21.0938L8.0625 20.3438L28.4062 0L51.75 23.3438ZM39.6562 32.9062C34.6875 32.9062 30.6562 36.9375 30.6562 41.9062C30.6562 46.875 34.6875 50.9062 39.6562 50.9062C44.625 50.9062 48.6562 46.875 48.6562 41.9062C48.6562 36.9375 44.625 32.9062 39.6562 32.9062ZM39.6562 49.0312C38.625 49.0312 37.7812 48.1875 37.7812 47.1562C37.7812 46.125 38.625 45.2812 39.6562 45.2812C40.6875 45.2812 41.5312 46.125 41.5312 47.1562C41.5312 48.1875 40.6875 49.0312 39.6562 49.0312ZM34.4062 43.7812C33.375 43.7812 32.5312 42.9375 32.5312 41.9062C32.5312 40.875 33.375 40.0312 34.4062 40.0312C35.4375 40.0312 36.2812 40.875 36.2812 41.9062C36.2812 42.9375 35.4375 43.7812 34.4062 43.7812ZM39.6562 43.7812C38.625 43.7812 37.7812 42.9375 37.7812 41.9062C37.7812 40.875 38.625 40.0312 39.6562 40.0312C40.6875 40.0312 41.5312 40.875 41.5312 41.9062C41.5312 42.9375 40.6875 43.7812 39.6562 43.7812ZM44.9062 43.7812C43.875 43.7812 43.0312 42.9375 43.0312 41.9062C43.0312 40.875 43.875 40.0312 44.9062 40.0312C45.9375 40.0312 46.7812 40.875 46.7812 41.9062C46.7812 42.9375 45.9375 43.7812 44.9062 43.7812ZM39.6562 38.5312C38.625 38.5312 37.7812 37.6875 37.7812 36.6562C37.7812 35.625 38.625 34.7812 39.6562 34.7812C40.6875 34.7812 41.5312 35.625 41.5312 36.6562C41.5312 37.6875 40.6875 38.5312 39.6562 38.5312Z" fill="#EF4629"/>
</svg>
