<svg width="64" height="57" viewBox="0 0 64 57" fill="none" xmlns="http://www.w3.org/2000/svg">
<path d="M54.4694 9.12731C48.326 3.12858 40.1875 -0.124687 31.5474 0.00365774C13.9515 0.249187 -0.200745 14.6294 0.00215474 32.062C0.103604 40.8118 3.9136 49.21 10.4515 55.1083C11.8492 56.375 13.6077 57 15.3605 57C17.2542 57 19.148 56.269 20.5908 54.8126C21.7293 53.663 22.9636 52.5637 24.2655 51.5481C27.0836 49.3384 29.5071 48.6353 32.0039 48.0717C34.5007 48.6353 36.9242 49.3384 39.7423 51.5481C41.0442 52.5693 42.2785 53.6686 43.4113 54.8126C46.1899 57.6194 50.6706 57.7254 53.6127 55.0525C60.2125 49.0649 64 40.5495 64 31.6881C64 22.8267 60.6127 15.1316 54.4694 9.12731ZM32.0377 43.853C32.0377 43.853 32.0152 43.853 31.9983 43.8586C31.987 43.8586 31.9757 43.853 31.9644 43.853C29.9354 43.4122 28.0135 42.9937 25.9564 41.9111C22.3042 39.9859 20.0385 36.0742 20.0385 31.6937C20.0385 25.1649 25.404 19.8525 31.9983 19.8525C38.5925 19.8525 43.958 25.1649 43.958 31.6937C43.958 36.0742 41.6923 39.9915 38.0401 41.9111C35.983 42.9937 34.0667 43.4122 32.0321 43.853M50.8115 52.0224C49.5265 53.1887 47.5821 53.1497 46.3816 51.9332C45.1247 50.6609 43.7608 49.45 42.3236 48.3228C41.1231 47.3797 39.9733 46.6599 38.863 46.0907C39.235 45.9233 39.6183 45.7391 40.0015 45.5382C45.012 42.8988 48.1231 37.592 48.1231 31.6881C48.1231 22.8881 40.892 15.7343 32.0095 15.7343C23.127 15.7343 15.8959 22.8937 15.8959 31.6881C15.8959 37.592 19.0071 42.8988 24.0175 45.5382C24.4008 45.7391 24.7841 45.9233 25.156 46.0907C24.0457 46.6599 22.896 47.3797 21.6955 48.3228C20.2583 49.45 18.8943 50.6609 17.6375 51.9332C16.4595 53.1217 14.4982 53.1831 13.2582 52.0671C7.57143 46.9333 4.25741 39.6232 4.16723 32.0118C3.98124 16.8448 16.2905 4.32833 31.6037 4.11628C39.111 4.01583 46.2069 6.83384 51.5555 12.0513C56.9042 17.2744 59.8518 24.2441 59.8518 31.6826C59.8518 39.121 56.5547 46.8049 50.8115 52.0169" fill="#EF4629"/>
</svg>
