<svg width="18" height="25" viewBox="0 0 18 25" fill="none" xmlns="http://www.w3.org/2000/svg">
    <path d="M18 8.86c0 5.578-5.578 12.234-7.969 14.812C9.421 24.375 9 24.75 9 24.75s-.422-.375-1.031-1.078C5.579 21.094 0 14.437 0 8.859 0 3.938 4.031 0 9 0s9 3.938 9 8.86zm-16.5 0c0 1.453.469 3.093 1.266 4.828.796 1.687 1.875 3.374 2.953 4.874A48.682 48.682 0 0 0 9 22.595a48.673 48.673 0 0 0 3.281-4.032c1.078-1.5 2.156-3.187 2.953-4.875.797-1.734 1.266-3.374 1.266-4.828C16.5 4.83 13.172 1.5 9 1.5c-4.172 0-7.5 3.328-7.5 7.36zM6.75 9c0 1.266.984 2.25 2.25 2.25s2.25-.984 2.25-2.25S10.266 6.75 9 6.75 6.75 7.734 6.75 9zM9 12.75A3.761 3.761 0 0 1 5.25 9 3.761 3.761 0 0 1 9 5.25 3.761 3.761 0 0 1 12.75 9 3.761 3.761 0 0 1 9 12.75z" fill="#EF4629"/>
</svg>
