<svg width="48" height="48" viewBox="0 0 48 48" fill="none" xmlns="http://www.w3.org/2000/svg">
<path d="M7.6875 37.2188H7.59375L5.25 43.0312L13.3125 40.2188L14.4375 39.8438L15.4688 40.3125C18.0938 41.4375 20.9062 42 24 42C35.8125 42 45 33.0938 45 22.5C45 11.9062 35.8125 3 24 3C12.1875 3 3 11.9062 3 22.5C3 26.9062 4.59375 30.9375 7.21875 34.2188L8.34375 35.5312L7.6875 37.2188ZM0 48C0.65625 46.3125 2.34375 42.375 4.875 36.0938C1.78125 32.3438 0 27.5625 0 22.5C0 10.125 10.7812 0 24 0C37.2188 0 48 10.125 48 22.5C48 34.9688 37.2188 45 24 45C20.5312 45 17.25 44.3438 14.3438 43.125C6.1875 45.8438 1.40625 47.5312 0 48ZM24 15C22.125 15 20.5312 16.5938 20.5312 18.4688H17.5312C17.5312 14.9062 20.4375 12 24 12C27.5625 12 30.4688 14.9062 30.4688 18.4688C30.4688 21.375 28.7812 23.0625 27.2812 23.9062C26.625 24.2812 25.9688 24.4688 25.5 24.6562V27H22.5V22.125H22.6875C23.8125 22.0312 24.75 21.8438 25.7812 21.2812C26.7188 20.8125 27.4688 19.9688 27.4688 18.4688C27.4688 16.5938 25.9688 15 24 15ZM22.125 33.375V29.625H25.875V33.375H22.125Z" fill="#EF4629"/>
</svg>
