<svg width="47" height="43" viewBox="0 0 47 43" fill="none" xmlns="http://www.w3.org/2000/svg">
<path d="M24.75 23.3438L43.7812 39.375L44.9062 40.3125L42.9375 42.6562L41.8125 41.625L23.25 25.9688L4.6875 41.625L3.5625 42.6562L1.6875 40.3125L2.8125 39.375L21.75 23.3438V0H24.75V23.3438ZM4.5 0.75V5.25H0V0.75H4.5ZM0 18.75H4.5V23.25H0V18.75ZM13.5 9.75V14.25H9V9.75H13.5ZM42 9.75H46.5V14.25H42V9.75ZM37.5 0.75V5.25H33V0.75H37.5ZM33 18.75H37.5V23.25H33V18.75ZM25.5 41.25H21V36.75H25.5V41.25Z" fill="#EF4629"/>
</svg>
