<svg width="48" height="52" viewBox="0 0 48 52" fill="none" xmlns="http://www.w3.org/2000/svg">
<path d="M30 9C30 5.71875 27.2812 3 24 3C20.7188 3 18 5.71875 18 9C18 12.2812 20.7188 15 24 15C27.2812 15 30 12.2812 30 9ZM15 9C15 4.03125 19.0312 0 24 0C28.9688 0 33 4.03125 33 9C33 13.9688 28.9688 18 24 18C19.0312 18 15 13.9688 15 9ZM20.5312 26.5312C16.5 24.8438 12.1875 24 7.78125 24H3V45H7.78125C12.8438 45 17.8125 45.9375 22.5 47.9062V27.375L20.5312 26.5312ZM40.2188 45H45V24H40.2188C35.8125 24 31.5 24.8438 27.4688 26.5312L25.5 27.375V47.9062C30.1875 45.9375 35.1562 45 40.2188 45ZM45 21H48V48H40.2188C35.4375 48 30.75 48.9375 26.3438 50.8125L24 51.75L21.6562 50.8125C17.25 48.9375 12.5625 48 7.78125 48H0V21H7.78125C12.5625 21 17.25 21.9375 21.6562 23.8125L24 24.75L26.3438 23.8125C30.75 21.9375 35.4375 21 40.2188 21H45Z" fill="#EF4629"/>
</svg>
