<svg width="48" height="48" viewBox="0 0 48 48" fill="none" xmlns="http://www.w3.org/2000/svg">
<path d="M17.7188 0H29.7188V13.5938L40.2188 7.59375L41.5312 6.84375L42.2812 8.0625L46.7812 15.9375L47.5312 17.1562L46.2188 17.9062L35.7188 24L46.2188 30.0938L47.5312 30.8438L46.7812 32.1562L42.2812 39.9375L41.5312 41.25L40.2188 40.5L29.7188 34.4062V48H17.7188V34.4062L7.21875 40.5L6 41.25L5.25 39.9375L0.75 32.1562L0 30.8438L1.21875 30.0938L11.7188 24L1.21875 17.9062L0 17.1562L0.75 15.9375L5.25 8.0625L6 6.84375L7.21875 7.59375L17.7188 13.5938V0ZM20.7188 3V18.8438L18.4688 17.5312L7.03125 10.875L4.03125 16.125L15.4688 22.6875L17.7188 24L15.4688 25.3125L4.03125 31.875L7.03125 37.125L18.4688 30.4688L20.7188 29.1562V45H26.7188V29.1562L28.9688 30.4688L40.4062 37.125L43.4062 31.875L31.9688 25.3125L29.7188 24L31.9688 22.6875L43.4062 16.125L40.4062 10.875L28.9688 17.5312L26.7188 18.8438V3H20.7188Z" fill="#EF4629"/>
</svg>
