<svg width="57" height="42" viewBox="0 0 57 42" fill="none" xmlns="http://www.w3.org/2000/svg">
<path d="M21 4.78125C21 6.9375 22.6875 8.8125 24.8438 9H25.2188C26.25 9 27.1875 8.625 27.9375 8.0625L28.2188 7.78125L33 3H37.5L45 21C51.6562 21 57 26.3438 57 33V42H36L3 22.5L16.5 0H21V4.78125ZM18 42H0V39H18V42ZM7.125 21.4688L36.8438 39H54V34.4062H53.5312H38.8125L9.5625 17.4375L7.125 21.4688ZM9 33H0V30H9V33ZM11.0625 14.9062L39.6562 31.4062H53.9062C53.0625 27.1875 49.4062 24 45 24H43.0312H37.5H36V21H37.5H41.7188L39.8438 16.5H33V13.5H34.5H38.625L35.5312 6H34.2188L30.375 9.84375C29.1562 11.0625 27.6562 11.8125 25.9688 12H25.2188C21.4688 12 18.4688 9.1875 18.0938 5.53125L18 4.78125V3.375L11.0625 14.9062Z" fill="#EF4629"/>
</svg>
