<svg width="54" height="42" viewBox="0 0 54 42" fill="none" xmlns="http://www.w3.org/2000/svg">
<path d="M3.28125 21C4.6875 24.0938 7.3125 28.4062 11.0625 31.9688C15.2812 36 20.625 39 27 39C33.4688 39 38.7188 36 42.9375 31.9688C46.6875 28.4062 49.3125 24.0938 50.7188 21C49.3125 17.9062 46.6875 13.5938 42.9375 10.0312C38.7188 6 33.4688 3 27 3C20.625 3 15.2812 6 11.0625 10.0312C7.3125 13.5938 4.6875 17.9062 3.28125 21ZM54 21C51.1875 28.0312 41.8125 42 27 42C12.1875 42 2.8125 28.0312 0 21C2.8125 13.9688 12.1875 0 27 0C41.8125 0 51.1875 13.9688 54 21ZM27 30C31.9688 30 36 25.9688 36 21C36 16.0312 31.9688 12 27 12V21H18C18 25.9688 22.0312 30 27 30ZM18.5625 18H24V12.5625C21.4688 13.4062 19.4062 15.4688 18.5625 18ZM27 9C33.6562 9 39 14.3438 39 21C39 27.6562 33.6562 33 27 33C20.3438 33 15 27.6562 15 21C15 14.3438 20.3438 9 27 9Z" fill="#EF4629"/>
</svg>
