<svg width="24" height="24" viewBox="0 0 24 24" fill="none" xmlns="http://www.w3.org/2000/svg">
    <path d="M3.844 18.61h-.047l-1.172 2.906 4.031-1.407.563-.187.515.234C9.047 20.72 10.454 21 12 21c5.906 0 10.5-4.453 10.5-9.75S17.906 1.5 12 1.5 1.5 5.953 1.5 11.25c0 2.203.797 4.219 2.11 5.86l.562.656-.328.843zM0 24c.328-.844 1.172-2.813 2.438-5.953A10.674 10.674 0 0 1 0 11.25C0 5.062 5.39 0 12 0s12 5.063 12 11.25c0 6.234-5.39 11.25-12 11.25-1.734 0-3.375-.328-4.828-.938C3.094 22.922.703 23.767 0 24zM12 7.5c-.938 0-1.734.797-1.734 1.734h-1.5A3.24 3.24 0 0 1 12 6a3.24 3.24 0 0 1 3.234 3.234c0 1.454-.843 2.297-1.593 2.72-.329.187-.657.28-.891.374V13.5h-1.5v-2.438h.094c.562-.046 1.031-.14 1.547-.421.468-.235.843-.657.843-1.407A1.73 1.73 0 0 0 12 7.5zm-.938 9.188v-1.875h1.876v1.874h-1.876z" fill="#EF4629"/>
</svg>
