<svg width="335" height="126" viewBox="0 0 335 126" fill="none" xmlns="http://www.w3.org/2000/svg">
<g clip-path="url(#clip0_18962_7939)">
<path d="M0.723915 55.8299H3.26916C7.6354 75.4883 16.5024 85.3278 29.9736 85.3278C40.0511 85.3278 46.3625 79.2544 46.3625 70.3978C45.752 60.6927 39.689 57.5371 26.7041 52.3121L21.3652 50.1289C6.4352 43.9417 0.237628 37.2579 0.237628 25.9698C0.237628 11.0501 13.833 0 30.7082 0C39.451 0 47.5834 1.57267 54.9811 4.73871L54.4948 27.0665H51.9496C48.0696 11.4122 41.6341 3.27985 29.9839 3.27985C21.2411 3.27985 14.9297 8.98079 14.9297 16.3889C14.9297 20.393 16.2644 23.4245 18.8097 25.7318C21.4791 28.0391 25.9695 30.3464 32.2808 32.7675L37.9818 34.9506C54.1224 41.262 60.92 48.4218 60.92 60.6824C60.92 76.585 47.3247 88.5973 29.239 88.5973C23.6518 88.5973 18.1992 87.8731 12.7362 86.4142C7.27327 84.8415 3.03119 83.1344 -0.0106888 81.3134L0.713568 55.8195L0.723915 55.8299Z" fill="#EF4629"/>
<path d="M61.655 84.9659L62.9897 84.7279C66.9938 83.8795 68.4527 82.4207 68.4527 77.9303V41.6346C68.4527 36.7821 66.88 34.7128 61.655 34.1127V32.4159L85.928 27.2012H86.9005V77.9406C86.9005 82.431 88.3594 83.8899 92.3635 84.7383L93.6982 84.9763V86.7972H61.655V84.9763V84.9659ZM77.6818 4.61475C82.8964 4.61475 87.0247 8.74301 87.0247 13.5955C87.0247 18.4481 82.8964 22.5763 77.6818 22.5763C72.4671 22.5763 68.3388 18.4481 68.3388 13.5955C68.3388 8.74301 72.4671 4.61475 77.6818 4.61475Z" fill="#EF4629"/>
<path d="M144.438 66.3938C140.185 81.448 131.567 88.4836 119.916 88.4836C104.262 88.4836 92.9739 76.223 92.9739 59.1098C92.9739 40.2998 105.597 26.8286 120.165 26.8286C135.943 26.8286 143.465 38.2408 143.465 49.7669L143.341 52.1983H109.352C109.477 67.2525 116.999 74.7744 127.19 74.7744C134.35 74.7744 138.84 71.9809 142.844 65.6695L144.427 66.3938H144.438ZM127.687 49.2806C127.2 37.2683 124.293 29.736 119.316 29.736C113.615 29.736 109.849 37.0199 109.363 49.2806H127.687Z" fill="#EF4629"/>
<path d="M212.29 84.9656V86.7866H180.485V84.9656L182.058 84.7276C185.575 84.1172 186.91 82.4203 186.91 77.9299V46.4972C186.91 39.3374 183.992 35.8196 178.291 35.8196C175.012 35.8196 171.856 37.1543 169.435 39.4615V77.9403C169.435 82.4307 171.018 84.1275 174.774 84.738L176.232 84.9759V86.7969H144.189V84.9759L145.648 84.738C149.528 83.8896 150.987 82.4307 150.987 77.9403V41.7688C150.987 37.0405 149.29 34.847 143.951 34.2469V32.4259L168.224 27.2112H168.948V37.5267C172.466 31.8258 179.512 26.8491 188.121 26.8491C200.133 26.8491 205.358 34.4952 205.358 44.5727V77.9506C205.358 82.441 206.693 83.8999 210.945 84.7483L212.28 84.9863L212.29 84.9656Z" fill="#EF4629"/>
<path d="M279.894 84.9656V86.7866H248.089V84.9656L249.662 84.7276C253.18 84.1172 254.514 82.4203 254.514 77.9299V46.4972C254.514 39.3374 251.597 35.8196 245.896 35.8196C242.616 35.8196 239.46 37.1543 237.039 39.4615V77.9403C237.039 82.4307 238.622 84.1275 242.378 84.738L243.837 84.9759V86.7969H211.794V84.9759L213.252 84.738C217.132 83.8896 218.591 82.4307 218.591 77.9403V41.7688C218.591 37.0405 216.894 34.847 211.556 34.2469V32.4259L235.828 27.2112H236.553V37.5267C240.071 31.8258 247.117 26.8491 255.725 26.8491C267.737 26.8491 272.962 34.4952 272.962 44.5727V77.9506C272.962 82.441 274.297 83.8999 278.549 84.7483L279.884 84.9863L279.894 84.9656Z" fill="#EF4629"/>
<path d="M335 81.6859C330.748 85.5659 325.295 87.9973 320.432 87.9973C313.997 87.9973 310.603 84.6036 309.63 80.2271C306.112 84.9658 300.65 87.8731 294.462 87.8731C284.633 87.8731 278.446 80.8375 278.446 72.0947C278.446 64.8107 282.574 61.0446 293.614 57.5268L309.268 52.6742V42.2346C309.268 32.8917 307.447 29.2497 303.443 29.2497C300.412 29.2497 299.439 31.4328 297.37 39.8135C296.035 44.5522 293.728 46.0007 289.486 46.0007C284.747 46.0007 281.229 43.3313 279.894 40.7861C281.591 34.4747 289.848 26.8286 304.043 26.8286C320.184 26.8286 327.344 33.9884 327.344 44.1901V74.5365C327.344 78.7889 328.802 80.6099 332.082 80.6099C332.931 80.6099 333.903 80.3719 335 79.8856V81.7066V81.6859ZM309.268 77.3197V55.354L302.346 57.7854C297.37 59.3685 295.797 61.6654 295.797 67.3767C295.797 74.2985 299.191 79.8753 304.654 79.8753C306.475 79.8753 308.047 79.2648 309.268 78.0543V77.33V77.3197Z" fill="#EF4629"/>
<path d="M11.5674 106.31C11.2777 104.738 10.0568 103.02 7.38742 102.989C5.24569 102.989 3.54886 104.396 3.54886 106.279C3.54886 107.769 4.51109 108.835 6.21826 109.207L8.9394 109.808C11.9192 110.459 13.6988 112.311 13.6988 114.929C13.6988 117.774 11.2674 120.289 7.39777 120.289C3.11431 120.289 0.941533 117.495 0.600098 114.774L2.6694 114.122C2.87633 116.316 4.4697 118.302 7.39777 118.302C10.0672 118.302 11.495 116.895 11.495 115.115C11.495 113.605 10.45 112.425 8.4945 111.98L5.77336 111.38C3.20742 110.801 1.35539 109.135 1.35539 106.414C1.35539 103.517 4.0248 101.034 7.36673 101.034C11.3605 101.034 13.0677 103.465 13.5333 105.607L11.5778 106.31H11.5674Z" fill="black"/>
<path d="M27.4286 116.378C26.7251 118.551 24.7592 120.299 21.8622 120.299C18.5203 120.299 15.6646 117.847 15.6646 113.636C15.6646 109.694 18.4375 107.056 21.5932 107.056C25.38 107.056 27.5011 109.694 27.5011 113.512C27.5011 113.771 27.47 114.06 27.4493 114.247H17.8064V114.35C17.8064 116.73 19.6067 118.427 21.8519 118.427C23.9729 118.427 25.1214 117.226 25.618 115.736L27.4183 116.388L27.4286 116.378ZM25.3283 112.457C25.2766 110.47 23.9936 108.908 21.6139 108.908C19.4411 108.908 17.9823 110.605 17.8478 112.457H25.318H25.3283Z" fill="black"/>
<path d="M32.2294 119.926H30.1395V107.407H32.1777V109.29C32.9847 107.831 34.454 107.045 36.0991 107.045C39.0995 107.045 40.5688 109.187 40.5688 111.908V119.926H38.4788V112.218C38.4788 110.387 37.6407 108.928 35.3748 108.928C33.3676 108.928 32.2398 110.604 32.2398 112.56V119.926H32.2294Z" fill="black"/>
<path d="M44.7901 100.91C45.6489 100.91 46.3628 101.613 46.3628 102.482C46.3628 103.351 45.6593 104.055 44.7901 104.055C43.921 104.055 43.2175 103.351 43.2175 102.482C43.2175 101.613 43.921 100.91 44.7901 100.91ZM43.7451 119.927V107.407H45.8351V119.927H43.7451Z" fill="black"/>
<path d="M60.91 113.656C60.91 117.526 58.2406 120.288 54.64 120.288C51.0394 120.288 48.37 117.516 48.37 113.656C48.37 109.797 51.0394 107.045 54.64 107.045C58.2406 107.045 60.91 109.818 60.91 113.656ZM50.46 113.656C50.46 116.709 52.3948 118.416 54.64 118.416C56.8852 118.416 58.82 116.719 58.82 113.656C58.82 110.594 56.8852 108.928 54.64 108.928C52.3948 108.928 50.46 110.625 50.46 113.656Z" fill="black"/>
<path d="M70.2116 109.56C69.8701 109.456 69.477 109.425 69.1148 109.425C67.0248 109.425 65.5867 110.625 65.5867 113.45V119.927H63.4967V107.407H65.5349V109.653C66.342 107.821 67.9353 107.221 69.3218 107.221C69.6632 107.221 70.0253 107.273 70.2116 107.325V109.549V109.56Z" fill="black"/>
<path d="M78.8302 119.927V101.406H81.0237V117.919H90.0148V119.927H78.8302Z" fill="black"/>
<path d="M93.0567 100.91C93.9155 100.91 94.6294 101.613 94.6294 102.482C94.6294 103.351 93.9258 104.055 93.0567 104.055C92.1876 104.055 91.484 103.351 91.484 102.482C91.484 101.613 92.1876 100.91 93.0567 100.91ZM92.0117 119.927V107.407H94.1017V119.927H92.0117Z" fill="black"/>
<path d="M103.248 119.927H101.127L96.0882 107.407H98.4369L102.203 117.495L105.99 107.407H108.235L103.248 119.927Z" fill="black"/>
<path d="M111.298 100.91C112.156 100.91 112.87 101.613 112.87 102.482C112.87 103.351 112.167 104.055 111.298 104.055C110.429 104.055 109.725 103.351 109.725 102.482C109.725 101.613 110.429 100.91 111.298 100.91ZM110.253 119.927V107.407H112.343V119.927H110.253Z" fill="black"/>
<path d="M117.744 119.926H115.654V107.407H117.692V109.29C118.499 107.831 119.968 107.045 121.613 107.045C124.614 107.045 126.083 109.187 126.083 111.908V119.926H123.993V112.218C123.993 110.387 123.155 108.928 120.889 108.928C118.882 108.928 117.754 110.604 117.754 112.56V119.926H117.744Z" fill="black"/>
<path d="M130.521 120.133C130.728 121.965 132.115 123.372 134.153 123.372C137.081 123.372 138.147 121.644 138.147 119.057V117.04C137.567 118.24 136.212 119.368 134.174 119.368C130.853 119.368 128.535 116.729 128.535 113.232C128.535 109.735 130.832 107.045 134.236 107.045C136.191 107.045 137.557 107.955 138.178 109.187V107.407H140.247V118.985C140.247 122.068 138.84 125.255 134.163 125.255C131.08 125.255 128.835 123.268 128.514 120.63L130.521 120.133ZM134.432 108.928C132.156 108.928 130.615 110.625 130.615 113.211C130.615 115.798 132.156 117.495 134.432 117.495C136.709 117.495 138.25 115.798 138.25 113.211C138.25 110.625 136.709 108.928 134.432 108.928Z" fill="black"/>
</g>
<defs>
<clipPath id="clip0_18962_7939">
<rect width="335" height="125.255" fill="white"/>
</clipPath>
</defs>
</svg>
