<svg width="31" height="32" viewBox="0 0 31 32" fill="none" xmlns="http://www.w3.org/2000/svg">
<path d="M18.875 0C20.625 0 22.25 1 23 2.5625L21.25 3.4375C20.8125 2.5625 19.875 2 18.875 2H17.125V0H18.875ZM2 23.875C2.0625 24.625 2.1875 25.125 2.1875 25.375C2.375 26.6875 3.4375 27.75 4.75 27.9375C5 28 5.5 28.0625 6.25 28.125L6 30.125C5.25 30 4.75 29.9375 4.4375 29.9375C2.25 29.625 0.5625 27.875 0.25 25.6875C0.1875 25.375 0.125 24.875 0 24.125L2 23.875ZM7.25 2.75L7.9375 2.0625C8.3125 2.4375 8.9375 3.0625 9.875 4C12.0625 1.75 13.25 0.5625 13.375 0.4375L14.125 1.125L23.125 10.1875V6H24.125H29.125H30.125V9.5V19.5V20.4375C30.125 26.8125 24.9375 32 18.5625 32C15.4375 32 12.5 30.75 10.3125 28.5625L0.875 19.0625L0.1875 18.3125C0.25 18.1875 1.4375 17.0625 3.6875 14.8125C2.0625 13.125 1.125 12.1875 0.875 11.9375C1 11.875 2.1875 10.6875 4.375 8.4375L3 7L3.6875 6.3125L7.25 2.75ZM8.4375 19.5L5.125 16.1875L3 18.3125L11.75 27.1875C13.5625 29 16 30 18.5625 30C23.875 30 28.125 25.6875 28.125 20.4375V19.5V9.5V8H25.125V14H24.125L23.4375 13.3125L13.375 3.25L11.25 5.375L19.5625 13.6875L20.25 14.375L18.875 15.8125L18.125 15.0625L9.5625 6.5L8.875 5.8125L7.9375 4.875L5.8125 7C11.625 12.8125 14.625 15.8125 14.8125 16C15.6875 16.875 16.3125 17.5 16.6875 17.9375L15.3125 19.3125L14.625 18.625L6 10.0625L5.8125 9.875L3.6875 11.9375C7.3125 15.625 6.9375 15.1875 9.875 18.125L10.125 18.375C12 20.25 13 21.25 13.1875 21.4375L11.75 22.875C11.3125 22.4375 10.8125 21.875 10.125 21.25L8.4375 19.5Z" fill="white"/>
</svg>
