<svg width="56" height="43" viewBox="0 0 56 43" fill="none" xmlns="http://www.w3.org/2000/svg">
<path d="M53.25 3.28125L45 9.28125L44.1562 9.84375L43.3125 9.28125L39.1875 6.5625H28.2188L16.2188 18.5625L16.3125 18.6562C19.2188 21.5625 24 21.5625 26.9062 18.6562C30.1875 15.375 31.875 13.5938 32.1562 13.4062L33.1875 14.5312L47.1562 28.4062L53.1562 22.4062L55.2188 24.5625L37.2188 42.5625H18L17.5312 42.0938L1.03125 25.5938L0 24.5625L2.0625 22.4062L3.1875 23.5312L19.2188 39.5625H26.25L22.7812 36.0938L24.9375 34.0312L30.4688 39.5625H36L37.875 37.6875L33.2812 33.0938L35.4375 31.0312L39.9375 35.5312L45 30.5625L32.0625 17.625L28.9688 20.7188C24.9375 24.8438 18.2812 24.8438 14.1562 20.7188L12 18.5625L13.0312 17.5312L24 6.5625H14.7188L11.25 10.0312L10.2188 9.28125L1.96875 3.28125L0.75 2.34375L2.53125 0L3.75 0.84375L10.9688 6.09375C12.5625 4.40625 13.4062 3.5625 13.5 3.5625H40.0312L40.4062 3.84375L44.0625 6.1875L51.4688 0.84375L52.6875 0L54.375 2.4375L53.25 3.28125Z" fill="#EF4629"/>
</svg>
