<svg width="50" height="49" viewBox="0 0 50 49" fill="none" xmlns="http://www.w3.org/2000/svg">
<path d="M24.6562 0L25.6875 0.9375L48.1875 21.9375L49.3125 22.9688L47.25 25.2188C46.6875 24.6562 45.6562 23.7188 44.1562 22.3125V48.5625H5.15625V22.3125C3.75 23.7188 2.71875 24.6562 2.0625 25.2188L0 22.9688L1.125 21.9375L23.625 0.9375L24.6562 0ZM24.6562 4.125L8.15625 19.5V45.5625H41.1562V19.5L24.6562 4.125ZM22.5 38.5312C21.5625 37.9688 20.4375 37.2188 19.2188 36.1875C16.875 34.3125 14.1562 31.3125 14.1562 27.5625C14.1562 24.2812 16.875 21.5625 20.1562 21.5625H20.4375C22.0312 21.5625 23.5312 22.125 24.6562 23.25C25.7812 22.125 27.375 21.5625 28.875 21.5625H29.1562C32.4375 21.5625 35.1562 24.2812 35.1562 27.5625C35.1562 31.3125 32.4375 34.3125 30.0938 36.1875C28.9688 37.2188 27.75 37.9688 26.8125 38.5312C26.1562 39 25.4062 39.375 24.6562 39.75C23.9062 39.375 23.1562 39 22.5 38.5312ZM28.875 24.5625C28.0312 24.5625 27.1875 24.9375 26.625 25.5L24.6562 27.4688L22.7812 25.5C22.125 24.9375 21.2812 24.5625 20.4375 24.5625H20.1562C18.4688 24.5625 17.1562 25.875 17.1562 27.5625C17.1562 29.8125 18.9375 32.0625 21.0938 33.9375C22.2188 34.7812 23.25 35.5312 24 36C24.2812 36.0938 24.4688 36.2812 24.6562 36.375C24.8438 36.2812 25.0312 36.0938 25.3125 36C26.0625 35.5312 27.1875 34.7812 28.2188 33.9375C30.375 32.0625 32.1562 29.8125 32.1562 27.5625C32.1562 25.875 30.8438 24.5625 29.1562 24.5625H28.875Z" fill="#EF4629"/>
</svg>
