<svg width="27" height="18" viewBox="0 0 27 18" fill="none" xmlns="http://www.w3.org/2000/svg">
<path d="M2.25 2.25V15.75H24.75V2.25H2.25ZM0 0H27V18H0V0ZM19.5 12V14.25H7.5V12H19.5ZM4.875 7.875H7.125V10.125H4.875V7.875ZM7.125 4.125V6.375H4.875V4.125H7.125ZM8.625 7.875H10.875V10.125H8.625V7.875ZM10.875 4.125V6.375H8.625V4.125H10.875ZM12.375 7.875H14.625V10.125H12.375V7.875ZM14.625 4.125V6.375H12.375V4.125H14.625ZM16.125 7.875H18.375V10.125H16.125V7.875ZM18.375 4.125V6.375H16.125V4.125H18.375ZM19.875 7.875H22.125V10.125H19.875V7.875ZM22.125 4.125V6.375H19.875V4.125H22.125Z" fill="#EF4629"/>
</svg>
