<svg width="54" height="52" viewBox="0 0 54 52" fill="none" xmlns="http://www.w3.org/2000/svg">
<path d="M48 2.4375V17.625C47.0625 17.1562 46.0312 16.875 45 16.6875V4.875L34.5 10.125V18.2812C33.375 18.8438 32.4375 19.5938 31.5 20.3438V10.125L16.5 5.15625V37.6875L28.9688 41.9062C29.7188 43.2188 30.4688 44.625 31.3125 45.8438L14.9062 40.3125L2.15625 46.7812L0 47.8125V8.34375L0.84375 7.875L14.5312 1.6875L15.0938 1.5L15.6562 1.6875L33.0938 7.5L45.8438 1.03125L48 0V2.4375ZM13.5 37.6875V5.4375L3 10.2188V42.9375L13.5 37.6875ZM42 23.9062C37.4062 23.9062 33.75 27.5625 33.75 31.9688C33.75 33.5625 34.3125 35.4375 35.25 37.5C36.1875 39.5625 37.5 41.625 38.8125 43.5C39.9375 45 41.0625 46.4062 42 47.4375C42.9375 46.4062 44.0625 45 45.1875 43.5C46.5 41.625 47.8125 39.5625 48.75 37.5C49.6875 35.4375 50.25 33.5625 50.25 31.9688C50.25 27.5625 46.5938 23.9062 42 23.9062ZM44.0625 49.6875C43.4062 50.4375 42.8438 51 42.4688 51.375C42.1875 51.6562 42 51.8438 42 51.8438C42 51.8438 41.8125 51.6562 41.5312 51.375C41.1562 51 40.5938 50.4375 39.9375 49.6875C36.75 46.0312 30.75 38.4375 30.75 31.9688C30.75 25.875 35.8125 20.9062 42 20.9062C48.1875 20.9062 53.25 25.875 53.25 31.9688C53.25 38.4375 47.3438 46.0312 44.0625 49.6875ZM42 34.4062C43.2188 34.4062 44.25 33.375 44.25 32.1562C44.25 30.9375 43.2188 29.9062 42 29.9062C40.7812 29.9062 39.75 30.9375 39.75 32.1562C39.75 33.375 40.7812 34.4062 42 34.4062ZM36.75 32.1562C36.75 29.25 39.0938 26.9062 42 26.9062C44.9062 26.9062 47.25 29.25 47.25 32.1562C47.25 35.0625 44.9062 37.4062 42 37.4062C39.0938 37.4062 36.75 35.0625 36.75 32.1562Z" fill="#EF4629"/>
</svg>
