<svg width="150" height="56" viewBox="0 0 150 56" fill="none" xmlns="http://www.w3.org/2000/svg">
<g clip-path="url(#clip0_18962_7614)">
<path d="M5.17165 47.5301C5.04213 46.827 4.49628 46.0591 3.30282 46.0453C2.34528 46.0453 1.58665 46.6744 1.58665 47.5163C1.58665 48.1824 2.01685 48.6588 2.78011 48.8254L3.99669 49.0937C5.32893 49.3851 6.12456 50.2131 6.12456 51.3834C6.12456 52.6555 5.0375 53.7796 3.30745 53.7796C1.39237 53.7796 0.420947 52.5306 0.268295 51.3141L1.19346 51.0226C1.28597 52.0033 1.99835 52.8915 3.30745 52.8915C4.50091 52.8915 5.13927 52.2624 5.13927 51.4667C5.13927 50.7913 4.67206 50.264 3.79778 50.0651L2.5812 49.7968C1.434 49.5377 0.605979 48.793 0.605979 47.5764C0.605979 46.2812 1.79944 45.171 3.29357 45.171C5.07913 45.171 5.84239 46.2581 6.05055 47.2156L5.17627 47.5301H5.17165Z" fill="black"/>
<path d="M12.263 52.0311C11.9485 53.0025 11.0696 53.7842 9.77433 53.7842C8.28019 53.7842 7.00347 52.6879 7.00347 50.8052C7.00347 49.0428 8.24318 47.8632 9.65406 47.8632C11.3471 47.8632 12.2954 49.0428 12.2954 50.7497C12.2954 50.8654 12.2815 50.9949 12.2723 51.0781H7.96101V51.1244C7.96101 52.1883 8.7659 52.947 9.7697 52.947C10.718 52.947 11.2315 52.4104 11.4535 51.7443L12.2584 52.0357L12.263 52.0311ZM11.324 50.2779C11.3008 49.3897 10.7272 48.6912 9.66331 48.6912C8.69189 48.6912 8.03965 49.4499 7.97951 50.2779H11.324Z" fill="black"/>
<path d="M13.475 53.6177V48.0205H14.3863V48.8624C14.7471 48.2101 15.4039 47.8586 16.1394 47.8586C17.4809 47.8586 18.1378 48.8161 18.1378 50.0327V53.6177H17.2034V50.1715C17.2034 49.3527 16.8287 48.7005 15.8156 48.7005C14.9182 48.7005 14.414 49.4499 14.414 50.3241V53.6177H13.475Z" fill="black"/>
<path d="M20.0251 45.1155C20.4091 45.1155 20.7282 45.43 20.7282 45.8186C20.7282 46.2072 20.4137 46.5217 20.0251 46.5217C19.6365 46.5217 19.322 46.2072 19.322 45.8186C19.322 45.43 19.6365 45.1155 20.0251 45.1155ZM19.5579 53.6177V48.0205H20.4923V53.6177H19.5579Z" fill="black"/>
<path d="M27.2321 50.8145C27.2321 52.5445 26.0387 53.7796 24.4289 53.7796C22.8191 53.7796 21.6256 52.5399 21.6256 50.8145C21.6256 49.089 22.8191 47.8586 24.4289 47.8586C26.0387 47.8586 27.2321 49.0983 27.2321 50.8145ZM22.5601 50.8145C22.5601 52.1791 23.4251 52.9423 24.4289 52.9423C25.4327 52.9423 26.2977 52.1837 26.2977 50.8145C26.2977 49.4452 25.4327 48.7005 24.4289 48.7005C23.4251 48.7005 22.5601 49.4591 22.5601 50.8145Z" fill="black"/>
<path d="M31.3907 48.9827C31.2381 48.9364 31.0623 48.9225 30.9004 48.9225C29.966 48.9225 29.323 49.4591 29.323 50.722V53.6177H28.3886V48.0205H29.2999V49.0243C29.6607 48.2055 30.373 47.9372 30.9929 47.9372C31.1455 47.9372 31.3075 47.9604 31.3907 47.9835V48.9827Z" fill="black"/>
<path d="M35.244 53.6177V45.3375H36.2247V52.7203H40.2445V53.6177H35.244Z" fill="black"/>
<path d="M41.6045 45.1155C41.9884 45.1155 42.3076 45.43 42.3076 45.8186C42.3076 46.2072 41.9931 46.5217 41.6045 46.5217C41.2159 46.5217 40.9014 46.2072 40.9014 45.8186C40.9014 45.43 41.2159 45.1155 41.6045 45.1155ZM41.1373 53.6177V48.0205H42.0717V53.6177H41.1373Z" fill="black"/>
<path d="M46.1609 53.6177H45.2126L42.9599 48.0205H44.0099L45.6937 52.5306L47.3867 48.0205H48.3905L46.1609 53.6177Z" fill="black"/>
<path d="M49.7598 45.1155C50.1437 45.1155 50.4629 45.43 50.4629 45.8186C50.4629 46.2072 50.1484 46.5217 49.7598 46.5217C49.3712 46.5217 49.0567 46.2072 49.0567 45.8186C49.0567 45.43 49.3712 45.1155 49.7598 45.1155ZM49.2926 53.6177V48.0205H50.227V53.6177H49.2926Z" fill="black"/>
<path d="M51.7073 53.6177V48.0205H52.6185V48.8624C52.9794 48.2101 53.6362 47.8586 54.3717 47.8586C55.7132 47.8586 56.3701 48.8161 56.3701 50.0327V53.6177H55.4356V50.1715C55.4356 49.3527 55.061 48.7005 54.0479 48.7005C53.1505 48.7005 52.6463 49.4499 52.6463 50.3241V53.6177H51.7073Z" fill="black"/>
<path d="M58.3545 53.7102C58.4471 54.529 59.0669 55.1581 59.9782 55.1581C61.2873 55.1581 61.7638 54.3856 61.7638 53.2291V52.3271C61.5047 52.8637 60.8987 53.3679 59.9874 53.3679C58.5026 53.3679 57.4664 52.1883 57.4664 50.6248C57.4664 49.0613 58.4933 47.8586 60.0152 47.8586C60.8895 47.8586 61.5001 48.2657 61.7776 48.8161V48.0205H62.7028V53.1968C62.7028 54.5753 62.0737 56 59.9828 56C58.6043 56 57.6005 55.1118 57.4571 53.9323L58.3545 53.7102ZM60.1031 48.7005C59.0854 48.7005 58.3962 49.4591 58.3962 50.6156C58.3962 51.772 59.0854 52.5306 60.1031 52.5306C61.1208 52.5306 61.81 51.772 61.81 50.6156C61.81 49.4591 61.1208 48.7005 60.1031 48.7005Z" fill="black"/>
<path d="M0.323645 24.9608H1.46159C3.41368 33.7499 7.378 38.149 13.4008 38.149C17.9063 38.149 20.7281 35.4337 20.7281 31.474C20.4552 27.135 17.7444 25.7241 11.939 23.3881L9.55213 22.412C2.87709 19.6458 0.106232 16.6575 0.106232 11.6108C0.106232 4.94036 6.18454 0 13.7292 0C17.638 0 21.2739 0.703122 24.5814 2.11862L24.364 12.1011H23.226C21.4913 5.10226 18.6141 1.46638 13.4054 1.46638C9.49662 1.46638 6.67488 4.0152 6.67488 7.32728C6.67488 9.11746 7.2716 10.4728 8.40955 11.5044C9.60301 12.5359 11.6106 13.5675 14.4324 14.6499L16.9812 15.626C24.1974 18.4477 27.2366 21.6488 27.2366 27.1304C27.2366 34.2402 21.1583 39.6108 13.0724 39.6108C10.5744 39.6108 8.13663 39.287 5.69421 38.6347C3.25178 37.9316 1.3552 37.1683 -0.00478745 36.3542L0.319019 24.9562L0.323645 24.9608Z" fill="#EF4629"/>
<path d="M27.565 37.9871L28.1617 37.8807C29.9519 37.5014 30.6042 36.8492 30.6042 34.8416V18.6142C30.6042 16.4447 29.901 15.5196 27.565 15.2513V14.4926L38.4172 12.1612H38.852V34.8462C38.852 36.8538 39.5042 37.506 41.2944 37.8853L41.8911 37.9917V38.8059H27.565V37.9871ZM34.7304 2.06311C37.0618 2.06311 38.9075 3.90881 38.9075 6.07831C38.9075 8.24781 37.0618 10.0935 34.7304 10.0935C32.399 10.0935 30.5533 8.24781 30.5533 6.07831C30.5533 3.90881 32.399 2.06311 34.7304 2.06311Z" fill="#EF4629"/>
<path d="M64.5761 29.6838C62.6749 36.4143 58.8216 39.5599 53.6129 39.5599C46.6141 39.5599 41.5673 34.0783 41.5673 26.4272C41.5673 18.0175 47.2108 11.9947 53.7239 11.9947C60.7783 11.9947 64.1413 17.097 64.1413 22.2501L64.0857 23.3372H48.89C48.9455 30.0677 52.3084 33.4307 56.8649 33.4307C60.0659 33.4307 62.0735 32.1817 63.8637 29.36L64.5715 29.6838H64.5761ZM57.0869 22.0327C56.8695 16.6622 55.5696 13.2946 53.3446 13.2946C50.7958 13.2946 49.112 16.5511 48.8946 22.0327H57.0869Z" fill="#EF4629"/>
<path d="M94.9121 37.9871V38.8013H80.6924V37.9871L81.3955 37.8807C82.9683 37.6078 83.565 36.8492 83.565 34.8416V20.7884C83.565 17.5873 82.2605 16.0145 79.7117 16.0145C78.2453 16.0145 76.8345 16.6113 75.752 17.6428V34.8462C75.752 36.8538 76.4598 37.6124 78.1389 37.8853L78.7912 37.9917V38.8059H64.4651V37.9917L65.1173 37.8853C66.852 37.506 67.5042 36.8538 67.5042 34.8462V18.6744C67.5042 16.5604 66.7456 15.5797 64.3587 15.3114V14.4973L75.2108 12.1659H75.5346V16.7778C77.1074 14.229 80.2576 12.004 84.1062 12.004C89.4768 12.004 91.8128 15.4224 91.8128 19.928V34.8508C91.8128 36.8584 92.4095 37.5107 94.3108 37.89L94.9075 37.9964L94.9121 37.9871Z" fill="#EF4629"/>
<path d="M125.137 37.9871V38.8013H110.917V37.9871L111.621 37.8807C113.193 37.6078 113.79 36.8492 113.79 34.8416V20.7884C113.79 17.5873 112.486 16.0145 109.937 16.0145C108.47 16.0145 107.059 16.6113 105.977 17.6428V34.8462C105.977 36.8538 106.685 37.6124 108.364 37.8853L109.016 37.9917V38.8059H94.6901V37.9917L95.3423 37.8853C97.077 37.506 97.7292 36.8538 97.7292 34.8462V18.6744C97.7292 16.5604 96.9706 15.5797 94.5837 15.3114V14.4973L105.436 12.1659H105.76V16.7778C107.332 14.229 110.483 12.004 114.331 12.004C119.702 12.004 122.038 15.4224 122.038 19.928V34.8508C122.038 36.8584 122.635 37.5107 124.536 37.89L125.133 37.9964L125.137 37.9871Z" fill="#EF4629"/>
<path d="M149.774 36.5207C147.873 38.2554 145.435 39.3425 143.261 39.3425C140.384 39.3425 138.867 37.8252 138.432 35.8685C136.859 37.9871 134.417 39.287 131.65 39.287C127.256 39.287 124.49 36.1414 124.49 32.2326C124.49 28.976 126.335 27.2923 131.271 25.7195L138.27 23.55V18.8825C138.27 14.7054 137.456 13.0772 135.665 13.0772C134.31 13.0772 133.875 14.0532 132.95 17.8001C132.353 19.9187 131.322 20.5663 129.425 20.5663C127.307 20.5663 125.734 19.3729 125.137 18.2349C125.896 15.4132 129.587 11.9947 135.934 11.9947C143.15 11.9947 146.351 15.1958 146.351 19.7568V33.3243C146.351 35.2255 147.003 36.0397 148.47 36.0397C148.849 36.0397 149.284 35.9333 149.774 35.7158V36.53V36.5207ZM138.27 24.7481L135.175 25.8351C132.95 26.5429 132.247 27.5698 132.247 30.1232C132.247 33.2179 133.764 35.7112 136.207 35.7112C137.021 35.7112 137.724 35.4383 138.27 34.8971V24.7481Z" fill="#EF4629"/>
</g>
<defs>
<clipPath id="clip0_18962_7614">
<rect width="149.774" height="56" fill="white"/>
</clipPath>
</defs>
</svg>
