<svg width="80" height="80" viewBox="0 0 80 80" fill="none" xmlns="http://www.w3.org/2000/svg">
    <path d="M78.419 71.343c-.516-.944-.992-1.941-1.229-3.038-.23-1.032-.402-2.156-.848-3.092-.641-1.37-1.663-2.409-2.594-3.542-.736-.912-1.467-2.009-2.234-2.85-1.118-1.371-2.375-2.48-3.58-3.742-.628-.589-1.256-1.067-1.773-1.741-.704-.89-1.368-1.97-2.113-2.855-.442-.516-.977-.892-1.468-1.28-1.238-.947-2.24-2.304-2.398-3.95-.11-10.771.073-26.088-.069-36.938-4.767-.706-45.183.033-59.312-.226-.622-.057-.188.386.47 1.169.447.513.907 1.013 1.35 1.542.545.641 1.027 1.366 1.503 2.054.72 1.14 1.56 1.752 2.569.982 1.245-.86 1.875-2.562 3.14-3.345 2.182-1.118 3.218 1.74 4.331 3.253 1.101 1.392 2.261 2.677 3.25 4.198 1.289 2.088 2.34 4.514 3.41 6.768 1.862 4.606 1.974 4.44 5.84 7.082 1.51 1.083 1.905 2.947 1.83 4.764.002.213-.003 1.711.381 1.3.196-.226.61-.93.638-.873.048 1.634-1.022 3.09-1.459 4.578-.473 1.104-.316 1.316.432 2.182.576.576.544.638.432 1.43-.017.326-.157.613-.256.882-.063.287-.102.539-.052.851.167.72.73 1.537 1.421 1.732.45.07.705-.483.96-.86.29-.517.866-1.197 1.194-1.472.251-.262.482.01.623.262.23.369.538.958.672 1.247.038.1.14.253 0 .303-.33.11-.639.388-.723.767-.088.415-.048.77-.418.976-.58.279-.847.85-.55 1.486.137.298.383.451.535.727.22.354.34.832.415 1.253.279 1.063.515-1.063.704-1.185.06-.017.14.092.193.121.099.085.223.1.35.095.151.003.241-.093.357-.086.044.008.058.063.058.166-.005.4-.129 1.23.038 1.582.114.143.315.136.467.212.177.094.398.234.618.16.855-.125 1.446-.941 2.025-1.538.238-.269.362-.192.426.067.331 1.786-.903 2.128-1.683 3.385-.248.457-.682 1.453-.075 1.716.303.114.465-.049.362.4-.038.403-.026.82-.144 1.201-.267 1.07.604 2.253 1.585 2.547.703.247 1.418-.08 2.102.236.725.379 1.164.366 1.938.07.076-.006.208-.091.256-.041-.252.384-.539.841-.685 1.354-.123.314.023.467.303.49.365.026.68.069 1.115-.023.61-.12 1.137-.727 1.614-1.021.083-.007.035.225.052.338.005.336.14.67.32.94.206.288.516.468.573.852.121 1.5.735 2.713 2.213 1.601.119-.077.098 0 .096.241.046 2.556 1.629 1.993 2.295 2.928.16.37.191.823.414 1.162.31.668 1.089.649 1.738.68 4.72.054 19.977-.006 24.963.015.315.008.728-.014.955-.09.247-.083.27-.247.14-.551l-.003-.01v.002z" stroke="#EF4629" stroke-linejoin="round"/>
</svg>
