<svg width="79" height="79" viewBox="0 0 79 79" fill="none" xmlns="http://www.w3.org/2000/svg">
<path d="M54.052 28.8056L53.0467 28.3533H52.2766L51.2713 28.9705L50.6867 28.6478L50.6227 27.6717L49.9453 26.0072L49.1393 25.0672L47.778 24.6439L47.4213 23.1444L46.9367 22.0756L46.3233 21.5155L45.0613 20.8339L44.6766 20.1167L44.9327 17.9711L44.7687 17.0961L44.1273 15.7611L43.6426 14.0967L43.5139 12.0806L43.7066 10.5522L44.3481 8.73002L44.156 8.14109L42.958 8.27778L41.1467 8.73002L39.1793 8.27778L37.8174 8.47168L36.5913 9.08832L35.942 9.28222L34.324 8.62945L33.7107 7.94779L33.226 6.61335L31.9993 6.12498L29.8033 5.63722L28.0566 4.49668L27.472 3.85054L27.1153 2.45167L26.5307 1.2461L25.5613 0.628868L24.5632 0.5L23.558 0.56443L22.6526 0.5L7.10253 17.3828L2.41063 21.1928L0.5 38.6711L1.24857 39.5184L1.86191 41.3406L2.41063 41.9217L4.93519 42.5744L7.45856 43.7156L9.61931 44.8206L11.0453 45.9256L12.0146 47.0017L13.0199 47.3244L14.2107 47.0017L15.7653 45.76L16.7059 45.4372L20.1927 47.095L21.1692 47.1956L21.7185 46.2195L22.4952 45.5667L23.9786 45.1789L24.3706 44.5905L24.656 43.2272L25.4327 42.3161L26.438 42.0867L28.3779 42.5744L30.93 43.2272L32.2919 44.0022L32.8694 45.2722L33.454 46.3845L34.2594 47.0661L36.0707 47.7839L36.6553 48.3361L36.7193 49.3123L37.5966 49.8L37.9173 50.3522L37.7533 53.7034L37.946 55.1667L38.5946 55.6906L40.2127 56.1139L40.7979 56.7311L41.7314 56.86L43.7066 56.2717L45.418 56.5372L46.872 56.9606L48.7474 56.76L49.9453 56.8889L50.6867 57.2478L51.3072 57.9006L52.1127 57.5134L52.8899 57.2478L53.6666 57.3484L54.18 57.6711L54.508 58.4245L54.7647 59.5295L55.3493 61.0933L56.576 62.715L56.64 63.4683L56.3833 64.3794L55.3493 64.7383L54.4727 64.4445L53.7953 63.4039L52.5973 62.4567L51.0787 61.2511L50.8507 61.6744L51.528 62.2272L51.9846 62.9161L51.82 64.2433L50.9787 65.8722L50.6867 67.5367L51.0787 69.8473L50.6227 71.045L49.396 71.7628L48.7474 73.0039L48.0413 74.9556L48.362 75.9961L48.0413 76.8428L47.5213 76.9361L46.4514 76.7784L46.1594 77.5528L46.2306 78.2417L46.58 78.5H47.2287L48.2627 77.8472L50.6227 76.9072L51.464 75.3434L52.4974 74.2673L54.0233 74.1089L55.25 74.2673L56.3833 73.8439L57.7739 72.6739L58.6434 72.2867L60.034 72.0928L60.7467 71.7628L61.196 71.2461L61.36 70.6578L61.132 70.3639L60.6186 70.2345L58.2586 70.3639L57.902 70.0695L57.7739 69.6461L58.2586 68.6417L59.87 67.2067L61.8447 66.2956L63.2706 66.1378L64.9533 66.4244L67.1134 66.1378L68.5394 65.255L69.6733 64.5733L70.964 62.6217L72.9674 59.7878L74.7781 58.13L76.0401 57.5134L78.5 55.59L77.8867 55.655L76.14 55.2961L74.8421 55.3967L73.1313 55.9489L72.2254 56.76L71.0633 56.7311L68.2827 56.76L63.3634 54.2273H61.7166L58.8719 52.34L57.2246 50.8689L56.768 49.6705L54.9286 29.6233L54.052 28.8056Z" stroke="#EF4629" stroke-linejoin="round"/>
</svg>
