<svg width="50" height="49" viewBox="0 0 50 49" fill="none" xmlns="http://www.w3.org/2000/svg">
<path d="M26.4375 8.0625L37.4062 0L39.5625 2.15625L28.2188 10.5C26.4375 11.8125 25.3125 13.875 25.3125 16.0312C25.3125 17.8125 26.0625 19.5 27.2812 20.7188L28.5 21.9375C29.7188 23.25 31.4062 23.9062 33.1875 23.9062C35.3438 23.9062 37.4062 22.7812 38.7188 21L47.0625 9.65625L49.2188 11.8125L41.1562 22.7812C39.375 25.2188 36.375 26.9062 33.1875 26.9062C30.8438 26.9062 28.5938 26.0625 26.8125 24.5625L3.84375 47.4375L1.78125 45.375L24.75 22.4062C23.1562 20.625 22.3125 18.375 22.3125 16.0312C22.3125 12.8438 24 9.84375 26.4375 8.0625ZM30.2812 16.875L42.2812 4.875L44.4375 6.9375L32.4375 18.9375L31.6875 19.6875L29.5312 17.625L30.2812 16.875ZM18 14.4375C17.8125 15.9375 17.8125 17.3438 18.0938 18.8438L5.90625 6.5625C3.375 10.125 3.65625 15.0938 6.84375 18.2812L14.625 26.1562L12.5625 28.2188L4.6875 20.4375C0 15.75 0 8.15625 4.6875 3.46875L4.78125 3.375L5.8125 2.25L6.84375 3.375L18 14.4375ZM46.7812 47.4375L30.4688 31.2188V31.125C31.875 31.4062 33.375 31.4062 34.7812 31.2188L48.8438 45.375L49.9688 46.4062L47.8125 48.5625L46.7812 47.4375Z" fill="#EF4629"/>
</svg>
