<svg width="42" height="48" viewBox="0 0 42 48" fill="none" xmlns="http://www.w3.org/2000/svg">
<path d="M21 21C25.9688 21 30 16.9688 30 12C30 7.03125 25.9688 3 21 3C16.0312 3 12 7.03125 12 12C12 16.9688 16.0312 21 21 21ZM33 12C33 18.6562 27.6562 24 21 24C14.3438 24 9 18.6562 9 12C9 5.34375 14.3438 0 21 0C27.6562 0 33 5.34375 33 12ZM27 37.6875V33H15V37.6875C17.1562 38.3438 18.75 40.4062 18.75 42.75C18.75 45.6562 16.4062 48 13.5 48C10.5938 48 8.25 45.6562 8.25 42.75C8.25 40.4062 9.84375 38.3438 12 37.6875V33H8.15625L3.1875 48H0L6 30H36L42 48H38.8125L33.8438 33H30V37.6875C32.625 38.3438 34.5 40.6875 34.5 43.5V47.25H31.5V43.5C31.5 41.8125 30.1875 40.5 28.5 40.5C26.9062 40.5 25.5 41.8125 25.5 43.5V47.25H22.5V43.5C22.5 40.6875 24.4688 38.3438 27 37.6875ZM15.75 42.75C15.75 41.5312 14.7188 40.5 13.5 40.5C12.2812 40.5 11.25 41.5312 11.25 42.75C11.25 43.9688 12.2812 45 13.5 45C14.7188 45 15.75 43.9688 15.75 42.75Z" fill="#EF4629"/>
</svg>
