<svg width="60" height="44" viewBox="0 0 60 44" fill="none" xmlns="http://www.w3.org/2000/svg">
<path d="M37.5 10.5C37.5 6.375 34.125 3 30 3C25.875 3 22.5 6.375 22.5 10.5C22.5 14.625 25.875 18 30 18C34.125 18 37.5 14.625 37.5 10.5ZM19.5 10.5C19.5 4.6875 24.1875 0 30 0C35.8125 0 40.5 4.6875 40.5 10.5C40.5 16.3125 35.8125 21 30 21C24.1875 21 19.5 16.3125 19.5 10.5ZM42.375 18.9375C43.2188 19.3125 44.0625 19.5 45 19.5C48.2812 19.5 51 16.7812 51 13.5C51 10.2188 48.2812 7.5 45 7.5C44.9062 7.5 44.8125 7.5 44.7188 7.5C44.5312 6.46875 44.1562 5.53125 43.7812 4.59375C44.1562 4.5 44.625 4.5 45 4.5C49.9688 4.5 54 8.53125 54 13.5C54 18.4688 49.9688 22.5 45 22.5C43.3125 22.5 41.8125 22.0312 40.4062 21.2812C41.1562 20.5312 41.8125 19.7812 42.375 18.9375ZM19.5938 21.2812C18.1875 22.0312 16.6875 22.5 15 22.5C10.0312 22.5 6 18.4688 6 13.5C6 8.53125 10.0312 4.5 15 4.5C15.375 4.5 15.8438 4.5 16.2188 4.59375C15.8438 5.53125 15.4688 6.46875 15.2812 7.5C15.1875 7.5 15.0938 7.5 15 7.5C11.7188 7.5 9 10.2188 9 13.5C9 16.7812 11.7188 19.5 15 19.5C15.9375 19.5 16.7812 19.3125 17.5312 18.9375C18.0938 19.7812 18.8438 20.5312 19.5 21.2812H19.5938ZM40.5 25.5L47.0625 43.5H43.875L38.4375 28.5H21.5625L16.125 43.5H12.9375L19.5 25.5H40.5ZM14.1562 27L13.125 30H8.0625L3.1875 43.5H0L6 27H14.1562ZM46.875 30L45.8438 27H54L60 43.5H56.8125L51.9375 30H46.875Z" fill="#EF4629"/>
</svg>
