<svg width="42" height="51" viewBox="0 0 42 51" fill="none" xmlns="http://www.w3.org/2000/svg">
<path d="M30 7.21875L21 3.28125L12 7.21875V12H19.5V10.5H17.25V7.5H19.5V5.25H22.5V7.5H24.75V10.5H22.5V12H30V7.21875ZM21 0L33 5.25V17.7188C35.9062 24.6562 37.4062 28.2188 37.5 28.5H4.5C4.59375 28.2188 6.09375 24.6562 9 17.7188V5.25L21 0ZM21.5625 15H12V16.5C12 21.4688 16.0312 25.5 21 25.5C25.9688 25.5 30 21.4688 30 16.5V15H21.5625ZM9 25.5H13.0312C12 24.5625 11.0625 23.4375 10.4062 22.125L9 25.5ZM33 25.5L31.5938 22.125C30.9375 23.4375 30 24.5625 28.9688 25.5H33ZM18.8438 36.8438L21 39L27 33H36L42 51H38.8125L33.8438 36H28.2188L21 43.2188C20.0625 42.375 17.7188 39.9375 13.7812 36H8.15625L3.1875 51H0L6 33H15L18.8438 36.8438Z" fill="#EF4629"/>
</svg>
