<svg width="42" height="32" viewBox="0 0 42 32" fill="none" xmlns="http://www.w3.org/2000/svg">
<path d="M19.2248 0V2.48062C12.4031 3.5969 9.30232 6.57364 9.30232 10.5426C9.30232 16.9923 18.9767 16.7442 18.9767 24.3101C18.9767 28.7752 15.6279 32 10.4186 32C3.84496 32 0 26.9147 0 19.969C0 10.9147 6.07752 1.36434 19.2248 0ZM41.4263 0V2.48062C34.6046 3.5969 31.6279 6.57364 31.6279 10.5426C31.6279 16.9923 41.1783 16.7442 41.1783 24.3101C41.1783 28.7752 37.8295 32 32.6202 32C26.0465 32 22.2015 26.9147 22.2015 19.969C22.2015 10.9147 28.2791 1.36434 41.4263 0Z" fill="#EF4629"/>
</svg>
