<svg width="48" height="42" viewBox="0 0 48 42" fill="none" xmlns="http://www.w3.org/2000/svg">
<path d="M10.5 0H38.625L38.9062 1.03125L43.5938 15H48V42H45V36H3V42H0V15H4.40625L9.09375 1.03125L9.46875 0H10.5ZM40.4062 15L36.375 3H11.625L7.59375 15H40.4062ZM3 18V33H45V18H3ZM9.75 27.75C8.53125 27.75 7.5 26.7188 7.5 25.5C7.5 24.2812 8.53125 23.25 9.75 23.25C10.9688 23.25 12 24.2812 12 25.5C12 26.7188 10.9688 27.75 9.75 27.75ZM40.5 25.5C40.5 26.7188 39.4688 27.75 38.25 27.75C37.0312 27.75 36 26.7188 36 25.5C36 24.2812 37.0312 23.25 38.25 23.25C39.4688 23.25 40.5 24.2812 40.5 25.5Z" fill="#EF4629"/>
</svg>
