<svg width="51" height="48" viewBox="0 0 51 48" fill="none" xmlns="http://www.w3.org/2000/svg">
<path d="M21 25.5938L21.4688 26.1562L33.9375 41.25L35.9062 43.5938C35.0625 44.1562 34.2188 44.7188 33.375 45.1875C30.0938 46.9688 26.4375 48 22.5 48C10.0312 48 0 37.9688 0 25.5C0 14.625 7.6875 5.53125 18 3.46875C18.9375 3.28125 19.9688 3.09375 21 3.09375V25.5938ZM31.4062 42.8438L19.125 28.125C18.8438 27.75 18.4688 27.2812 18 26.625V6.5625C9.375 8.53125 3 16.3125 3 25.5C3 36.2812 11.7188 45 22.5 45C25.6875 45 28.6875 44.25 31.4062 42.8438ZM30.4688 30L28.0312 27H50.9062C50.8125 28.0312 50.7188 29.0625 50.5312 30C49.5938 34.5938 47.25 38.625 44.0625 41.7188C43.9688 41.8125 43.875 41.9062 43.7812 42C43.125 42.5625 42.4688 43.125 41.8125 43.5938L30.4688 30ZM34.4062 30L42.1875 39.375C44.7188 36.8438 46.5938 33.6562 47.4375 30H34.4062ZM44.7188 19.5C43.4062 11.1562 36.8438 4.5 28.4062 3.1875V19.5H44.7188ZM47.7188 19.5C47.9062 20.5312 48 21.4688 48 22.5H25.5V0C26.4375 0 27.4688 0.09375 28.5 0.1875C38.4375 1.5 46.4062 9.46875 47.7188 19.5Z" fill="#EF4629"/>
</svg>
