<svg width="32" height="32" viewBox="0 0 32 32" fill="none" xmlns="http://www.w3.org/2000/svg">
<path d="M29 16C29 8.8125 23.1875 3 16 3C8.8125 3 3 8.8125 3 16C3 23.1875 8.8125 29 16 29C23.1875 29 29 23.1875 29 16ZM0 16C0 7.1875 7.1875 0 16 0C24.8125 0 32 7.1875 32 16C32 24.8125 24.8125 32 16 32C7.1875 32 0 24.8125 0 16ZM16 11C14.875 11 14 11.875 14 13H11C11 10.25 13.25 8 16 8C18.75 8 21 10.25 21 13C21 15.1875 19.75 16.625 18.625 17.375C18.25 17.625 17.8125 17.875 17.5 18V19.375H14.5V15.875C14.5625 15.8125 14.6875 15.8125 14.75 15.8125C15.5 15.5625 16.1875 15.375 16.875 14.9375C17.5625 14.5 18 13.875 18 13C18 11.875 17.125 11 16 11ZM14.5 21.5H17.5V24.5H14.5V21.5Z" fill="#EF4629"/>
</svg>
