<svg width="39" height="55" viewBox="0 0 39 55" fill="none" xmlns="http://www.w3.org/2000/svg">
<path d="M18 7.5C19.2188 7.5 20.25 6.46875 20.25 5.25C20.25 4.03125 19.2188 3 18 3C16.7812 3 15.75 4.03125 15.75 5.25C15.75 6.46875 16.7812 7.5 18 7.5ZM18 0C20.9062 0 23.25 2.34375 23.25 5.25C23.25 8.15625 20.9062 10.5 18 10.5C15.0938 10.5 12.75 8.15625 12.75 5.25C12.75 2.34375 15.0938 0 18 0ZM18 16.5H15.75V28.5C15.75 29.9062 16.4062 31.2188 17.5312 32.1562L20.25 34.2188V16.5H18ZM23.25 20.5312V36.4688L27.9375 40.0312L28.4062 40.4062L28.5 41.0625L30 52.3125L30.1875 53.8125L27.1875 54.1875L27 52.6875L25.5938 42.0938L15.75 34.5C13.875 33.0938 12.75 30.8438 12.75 28.5V13.5H23.5312L23.9062 14.4375L28.0312 24H36V12H39V54H36V27H26.0625L25.5938 26.0625L23.25 20.5312ZM12.1875 42.75L13.5 38.0625L16.0312 40.2188L14.9062 43.875L14.8125 44.25L14.5312 44.5312L5.53125 53.5312L4.5 54.6562L2.4375 52.5L3.46875 51.4688L12.1875 42.75ZM6 15C4.3125 15 3 16.3125 3 18V27H6V15ZM0 18C0 14.7188 2.71875 12 6 12H9V30H0V18Z" fill="#EF4629"/>
</svg>
