<svg width="50" height="43" viewBox="0 0 50 43" fill="none" xmlns="http://www.w3.org/2000/svg">
<path d="M48.0938 3.28125L31.5938 18.2812L30.5625 19.2188L29.5312 18.1875L18.375 7.125L3 18.375L1.78125 19.2188L0 16.7812L1.21875 15.9375L17.7188 3.9375L18.75 3.1875L19.6875 4.125L30.6562 15.0938L46.0312 1.03125L47.1562 0L49.2188 2.25L48.0938 3.28125ZM20.0625 20.1562V42.6562H17.0625V18.6562H20.0625V20.1562ZM44.0625 20.1562V42.6562H41.0625V18.6562H44.0625V20.1562ZM32.0625 26.1562V42.6562H29.0625V24.6562H32.0625V26.1562ZM8.0625 29.1562V42.6562H5.0625V27.6562H8.0625V29.1562Z" fill="#EF4629"/>
</svg>
