<svg width="25" height="25" viewBox="0 0 25 25" fill="none" xmlns="http://www.w3.org/2000/svg">
<path d="M17.2031 9.75C17.2031 5.625 13.875 2.25 9.70312 2.25C5.57812 2.25 2.20312 5.625 2.20312 9.75C2.20312 13.875 5.57812 17.25 9.70312 17.25C13.875 17.25 17.2031 13.875 17.2031 9.75ZM15.7969 17.3906C14.1094 18.7031 12 19.5 9.75 19.5C4.35938 19.5 0 15.1406 0 9.75C0 4.35938 4.35938 0 9.75 0C15.0938 0 19.5 4.35938 19.5 9.75C19.5 12.0469 18.7031 14.1562 17.3906 15.7969L23.6719 22.0781L24.4688 22.875L22.875 24.4688L22.0781 23.6719L15.7969 17.3906Z" fill="#EF4629"/>
</svg>
