<svg width="42" height="44" viewBox="0 0 42 44" fill="none" xmlns="http://www.w3.org/2000/svg">
<path d="M39 43.5H3V34.3125L4.6875 34.5L21 36.75L37.3125 34.5L39 34.3125V43.5ZM6 40.5H18V39.375L6 37.6875V40.5ZM21 39.75V40.5H36V37.6875L21 39.75ZM28.3125 15.8438L33.9375 27H42V30H32.0625L31.6875 29.1562L28.5 22.875V32.7188L25.5 33.0938V18H16.5V33.0938L13.5 32.7188V22.875L10.3125 29.1562L9.9375 30H0V27H8.0625L13.6875 15.8438L14.0625 15H27.9375L28.3125 15.8438ZM21 10.5C18.0938 10.5 15.75 8.15625 15.75 5.25C15.75 2.34375 18.0938 0 21 0C23.9062 0 26.25 2.34375 26.25 5.25C26.25 8.15625 23.9062 10.5 21 10.5ZM21 3C19.7812 3 18.75 4.03125 18.75 5.25C18.75 6.46875 19.7812 7.5 21 7.5C22.2188 7.5 23.25 6.46875 23.25 5.25C23.25 4.03125 22.2188 3 21 3Z" fill="#EF4629"/>
</svg>
